<svg width="398" height="52" viewBox="0 0 398 52" fill="none" xmlns="http://www.w3.org/2000/svg">
<path d="M24.4998 23.0323L25.4937 20.9524C25.9005 20.1012 25.8652 19.1042 25.3995 18.2851L24.4998 16.7029L23.6002 18.2851C23.1345 19.1042 23.0991 20.1013 23.506 20.9524L24.4998 23.0323Z" fill="#7159C1"/>
<path d="M34.8422 29.8288C32.3403 31.8905 29.2802 33.1563 26.0899 33.4738C26.6288 36.9734 28.1385 40.4118 30.3414 43.0921C32.2199 45.3775 35.4153 48.0872 40.0814 48.2604V22.2053C39.0789 25.1754 37.2583 27.8378 34.8422 29.8288Z" fill="#7159C1"/>
<path d="M22.9837 13.5224C21.9523 11.2703 19.6984 9.78592 17.241 9.78592C15.7713 9.78592 14.3926 10.2841 13.2541 11.2269C11.8978 12.3499 11.06 14.0559 10.9557 15.9077L10.9521 15.9709C10.8758 17.3267 10.9745 18.63 11.2456 19.8442C11.9186 22.8567 13.5951 25.5919 15.9663 27.5459C18.4063 29.5567 21.3575 30.6195 24.5009 30.6195C27.6443 30.6195 30.5954 29.5566 33.0355 27.5459C35.4067 25.5919 37.0832 22.8567 37.756 19.8441C38.0303 18.6162 38.1269 17.2998 38.043 15.9313L38.0396 15.8734C37.9217 13.9569 37.0271 12.2165 35.5851 11.0984C34.4775 10.2396 33.1544 9.78582 31.7588 9.78582C29.3013 9.78582 27.0473 11.2704 26.016 13.5227L27.8865 16.8123C28.8338 18.4785 28.9055 20.5069 28.0781 22.2383L25.7919 27.0224C25.5509 27.5266 25.0493 27.8465 24.4996 27.8465C23.9499 27.8465 23.4483 27.5267 23.2074 27.0224L20.9212 22.2383C20.0938 20.5069 20.1654 18.4785 21.1128 16.8123L22.9837 13.5224ZM29.5137 16.0601C29.5758 15.4497 30.0111 14.9325 30.595 14.7823C31.1765 14.6327 31.807 14.881 32.1399 15.3901C32.4724 15.8983 32.4574 16.5876 32.0992 17.0781C31.7405 17.569 31.1023 17.7877 30.5268 17.6084C29.88 17.4068 29.4451 16.7487 29.5137 16.0601ZM18.9559 16.3496C18.8926 16.9607 18.4597 17.4763 17.8748 17.6274C17.2931 17.7777 16.6628 17.5281 16.3297 17.0196C15.9971 16.5119 16.0128 15.8216 16.3708 15.3317C16.7295 14.8409 17.3672 14.6224 17.9428 14.8014C18.5897 15.0025 19.0246 15.6614 18.9559 16.3496Z" fill="#7159C1"/>
<path d="M28.1384 44.9777C25.5165 41.7879 23.7487 37.6659 23.1877 33.4992C19.8982 33.2287 16.7337 31.9498 14.1598 29.8289C11.7424 27.8368 9.92112 25.1725 8.91882 22.2005V31.6136C8.89678 36.7603 10.8578 41.6169 14.4404 45.2888C18.034 48.9717 22.803 51 27.869 51H37.5351C37.6661 51 37.7962 50.9895 37.9243 50.9695C34.2213 50.3034 30.8148 48.234 28.1384 44.9777Z" fill="#7159C1"/>
<path d="M11.4423 8.94842C13.0752 7.59636 15.1346 6.85177 17.241 6.85177C19.1415 6.85177 20.9663 7.43812 22.5181 8.54742C23.2751 9.08858 23.9409 9.73409 24.5 10.4639C25.0591 9.73419 25.7249 9.08858 26.4819 8.54742C28.0337 7.43812 29.8586 6.85177 31.759 6.85177C33.7882 6.85177 35.7128 7.51235 37.3249 8.7623C37.7434 9.08681 38.1297 9.44693 38.4825 9.83649C35.9177 4.60275 30.6137 1 24.4998 1C18.3871 1 13.0839 4.60138 10.5186 9.83346C10.8048 9.51755 11.1129 9.2213 11.4423 8.94842Z" fill="#7159C1"/>
<path d="M75.436 32.196V39H72.412C66.844 39 64.06 36.228 64.06 30.684V25.356H61.54V18.696H64.06V13.8H72.052V18.696H75.364V25.356H72.052V30.828C72.052 31.308 72.16 31.656 72.376 31.872C72.616 32.088 73 32.196 73.528 32.196H75.436ZM98.1357 28.668C98.1357 29.22 98.0997 29.748 98.0277 30.252H85.1757C85.2957 32.004 86.0277 32.88 87.3717 32.88C88.2357 32.88 88.8597 32.484 89.2437 31.692H97.7037C97.4157 33.132 96.8037 34.428 95.8677 35.58C94.9557 36.708 93.7917 37.608 92.3757 38.28C90.9837 38.928 89.4477 39.252 87.7677 39.252C85.7517 39.252 83.9517 38.832 82.3677 37.992C80.8077 37.152 79.5837 35.952 78.6957 34.392C77.8317 32.808 77.3997 30.96 77.3997 28.848C77.3997 26.736 77.8317 24.9 78.6957 23.34C79.5837 21.756 80.8077 20.544 82.3677 19.704C83.9517 18.864 85.7517 18.444 87.7677 18.444C89.7837 18.444 91.5717 18.864 93.1317 19.704C94.7157 20.52 95.9397 21.696 96.8037 23.232C97.6917 24.768 98.1357 26.58 98.1357 28.668ZM90.0357 26.76C90.0357 26.088 89.8197 25.584 89.3877 25.248C88.9557 24.888 88.4157 24.708 87.7677 24.708C86.3517 24.708 85.5237 25.392 85.2837 26.76H90.0357ZM99.5833 28.848C99.5833 26.712 99.9433 24.864 100.663 23.304C101.407 21.72 102.415 20.52 103.687 19.704C104.959 18.864 106.387 18.444 107.971 18.444C109.291 18.444 110.431 18.72 111.391 19.272C112.351 19.8 113.083 20.532 113.587 21.468V18.696H121.543V39H113.587V36.228C113.083 37.164 112.351 37.908 111.391 38.46C110.431 38.988 109.291 39.252 107.971 39.252C106.387 39.252 104.959 38.844 103.687 38.028C102.415 37.188 101.407 35.988 100.663 34.428C99.9433 32.844 99.5833 30.984 99.5833 28.848ZM113.587 28.848C113.587 27.768 113.311 26.928 112.759 26.328C112.207 25.728 111.499 25.428 110.635 25.428C109.771 25.428 109.063 25.728 108.511 26.328C107.959 26.928 107.683 27.768 107.683 28.848C107.683 29.928 107.959 30.768 108.511 31.368C109.063 31.968 109.771 32.268 110.635 32.268C111.499 32.268 112.207 31.968 112.759 31.368C113.311 30.768 113.587 29.928 113.587 28.848ZM124.052 28.848C124.052 26.736 124.484 24.9 125.348 23.34C126.236 21.756 127.46 20.544 129.02 19.704C130.604 18.864 132.404 18.444 134.42 18.444C137.06 18.444 139.28 19.188 141.08 20.676C142.904 22.164 144.056 24.228 144.536 26.868H136.076C135.764 25.812 135.152 25.284 134.24 25.284C133.592 25.284 133.076 25.584 132.692 26.184C132.332 26.784 132.152 27.672 132.152 28.848C132.152 30.024 132.332 30.912 132.692 31.512C133.076 32.112 133.592 32.412 134.24 32.412C135.152 32.412 135.764 31.884 136.076 30.828H144.536C144.056 33.468 142.904 35.532 141.08 37.02C139.28 38.508 137.06 39.252 134.42 39.252C132.404 39.252 130.604 38.832 129.02 37.992C127.46 37.152 126.236 35.952 125.348 34.392C124.484 32.808 124.052 30.96 124.052 28.848ZM161.29 18.552C163.618 18.552 165.43 19.332 166.726 20.892C168.046 22.452 168.706 24.564 168.706 27.228V39H160.75V28.236C160.75 27.276 160.486 26.52 159.958 25.968C159.454 25.392 158.77 25.104 157.906 25.104C157.018 25.104 156.322 25.392 155.818 25.968C155.314 26.52 155.062 27.276 155.062 28.236V39H147.07V12.36H155.062V21.792C155.686 20.832 156.514 20.052 157.546 19.452C158.602 18.852 159.85 18.552 161.29 18.552ZM183.871 17.256C183.439 17.208 183.139 17.184 182.971 17.184C182.371 17.184 181.915 17.304 181.603 17.544C181.291 17.76 181.075 18.144 180.955 18.696H183.871V25.356H180.883V39H172.891V25.356H170.731V18.696H172.891C172.939 16.056 173.767 14.016 175.375 12.576C177.007 11.112 179.287 10.38 182.215 10.38C182.551 10.38 183.103 10.404 183.871 10.452V17.256ZM194.015 12.36V39H186.023V12.36H194.015ZM201.656 17.076C200.264 17.076 199.148 16.704 198.308 15.96C197.468 15.216 197.048 14.28 197.048 13.152C197.048 12 197.468 11.052 198.308 10.308C199.148 9.54 200.264 9.156 201.656 9.156C203.024 9.156 204.128 9.54 204.968 10.308C205.808 11.052 206.228 12 206.228 13.152C206.228 14.28 205.808 15.216 204.968 15.96C204.128 16.704 203.024 17.076 201.656 17.076ZM205.616 18.696V39H197.624V18.696H205.616ZM222.546 39L219.126 34.428L216.57 39H207.786L214.59 28.308L207.426 18.696H216.354L219.774 23.304L222.366 18.696H231.15L224.13 29.136L231.474 39H222.546Z" fill="#7159C1"/>
</svg>
