<svg width="232" height="50" viewBox="0 0 232 50" fill="none" xmlns="http://www.w3.org/2000/svg">
<rect width="232" height="50" fill="#E5E5E5"/>
<path d="M24.4998 22.0323L25.4937 19.9524C25.9005 19.1012 25.8652 18.1042 25.3995 17.2851L24.4998 15.7029L23.6002 17.2851C23.1345 18.1042 23.0991 19.1013 23.506 19.9524L24.4998 22.0323Z" fill="#7159C1"/>
<path d="M34.8422 28.8288C32.3403 30.8905 29.2802 32.1563 26.0899 32.4738C26.6288 35.9734 28.1385 39.4118 30.3414 42.0921C32.2199 44.3775 35.4153 47.0872 40.0814 47.2604V21.2053C39.0789 24.1754 37.2583 26.8378 34.8422 28.8288Z" fill="#7159C1"/>
<path d="M22.9837 12.5224C21.9523 10.2703 19.6984 8.78592 17.241 8.78592C15.7713 8.78592 14.3926 9.28414 13.2541 10.2269C11.8978 11.3499 11.06 13.0559 10.9557 14.9077L10.9521 14.9709C10.8758 16.3267 10.9745 17.63 11.2456 18.8442C11.9186 21.8567 13.5951 24.5919 15.9663 26.5459C18.4063 28.5567 21.3575 29.6195 24.5009 29.6195C27.6443 29.6195 30.5954 28.5566 33.0355 26.5459C35.4067 24.5919 37.0832 21.8567 37.756 18.8441C38.0303 17.6162 38.1269 16.2998 38.043 14.9313L38.0396 14.8734C37.9217 12.9569 37.0271 11.2165 35.5851 10.0984C34.4775 9.23964 33.1544 8.78582 31.7588 8.78582C29.3013 8.78582 27.0473 10.2704 26.016 12.5227L27.8865 15.8123C28.8338 17.4785 28.9055 19.5069 28.0781 21.2383L25.7919 26.0224C25.5509 26.5266 25.0493 26.8465 24.4996 26.8465C23.9499 26.8465 23.4483 26.5267 23.2074 26.0224L20.9212 21.2383C20.0938 19.5069 20.1654 17.4785 21.1128 15.8123L22.9837 12.5224ZM29.5137 15.0601C29.5758 14.4497 30.0111 13.9325 30.595 13.7823C31.1765 13.6327 31.807 13.881 32.14 14.3901C32.4724 14.8983 32.4574 15.5876 32.0992 16.0781C31.7405 16.569 31.1023 16.7877 30.5268 16.6084C29.88 16.4068 29.4451 15.7487 29.5137 15.0601ZM18.9559 15.3496C18.8926 15.9607 18.4597 16.4763 17.8748 16.6274C17.2931 16.7777 16.6628 16.5281 16.3297 16.0196C15.9971 15.5119 16.0128 14.8216 16.3708 14.3317C16.7295 13.8409 17.3672 13.6224 17.9428 13.8014C18.5897 14.0025 19.0246 14.6614 18.9559 15.3496Z" fill="#7159C1"/>
<path d="M28.1384 43.9777C25.5165 40.7879 23.7487 36.6659 23.1877 32.4992C19.8982 32.2287 16.7337 30.9498 14.1598 28.8289C11.7424 26.8368 9.92112 24.1725 8.91882 21.2005V30.6136C8.89678 35.7603 10.8578 40.6169 14.4404 44.2888C18.034 47.9717 22.803 50 27.869 50H37.5351C37.6661 50 37.7962 49.9895 37.9243 49.9695C34.2213 49.3034 30.8148 47.234 28.1384 43.9777V43.9777Z" fill="#7159C1"/>
<path d="M11.4423 7.94842C13.0752 6.59636 15.1346 5.85177 17.241 5.85177C19.1415 5.85177 20.9663 6.43812 22.5181 7.54742C23.2751 8.08858 23.9409 8.73409 24.5 9.46391C25.0591 8.73419 25.7249 8.08858 26.4819 7.54742C28.0337 6.43812 29.8586 5.85177 31.759 5.85177C33.7882 5.85177 35.7128 6.51235 37.3249 7.7623C37.7434 8.08681 38.1297 8.44693 38.4825 8.83649C35.9177 3.60275 30.6137 0 24.4998 0C18.3871 0 13.0839 3.60138 10.5186 8.83346C10.8048 8.51755 11.1129 8.2213 11.4423 7.94842V7.94842Z" fill="#7159C1"/>
<path d="M75.436 31.196V38H72.412C66.844 38 64.06 35.228 64.06 29.684V24.356H61.54V17.696H64.06V12.8H72.052V17.696H75.364V24.356H72.052V29.828C72.052 30.308 72.16 30.656 72.376 30.872C72.616 31.088 73 31.196 73.528 31.196H75.436ZM98.1357 27.668C98.1357 28.22 98.0997 28.748 98.0277 29.252H85.1757C85.2957 31.004 86.0277 31.88 87.3717 31.88C88.2357 31.88 88.8597 31.484 89.2437 30.692H97.7037C97.4157 32.132 96.8037 33.428 95.8677 34.58C94.9557 35.708 93.7917 36.608 92.3757 37.28C90.9837 37.928 89.4477 38.252 87.7677 38.252C85.7517 38.252 83.9517 37.832 82.3677 36.992C80.8077 36.152 79.5837 34.952 78.6957 33.392C77.8317 31.808 77.3997 29.96 77.3997 27.848C77.3997 25.736 77.8317 23.9 78.6957 22.34C79.5837 20.756 80.8077 19.544 82.3677 18.704C83.9517 17.864 85.7517 17.444 87.7677 17.444C89.7837 17.444 91.5717 17.864 93.1317 18.704C94.7157 19.52 95.9397 20.696 96.8037 22.232C97.6917 23.768 98.1357 25.58 98.1357 27.668ZM90.0357 25.76C90.0357 25.088 89.8197 24.584 89.3877 24.248C88.9557 23.888 88.4157 23.708 87.7677 23.708C86.3517 23.708 85.5237 24.392 85.2837 25.76H90.0357ZM99.5833 27.848C99.5833 25.712 99.9433 23.864 100.663 22.304C101.407 20.72 102.415 19.52 103.687 18.704C104.959 17.864 106.387 17.444 107.971 17.444C109.291 17.444 110.431 17.72 111.391 18.272C112.351 18.8 113.083 19.532 113.587 20.468V17.696H121.543V38H113.587V35.228C113.083 36.164 112.351 36.908 111.391 37.46C110.431 37.988 109.291 38.252 107.971 38.252C106.387 38.252 104.959 37.844 103.687 37.028C102.415 36.188 101.407 34.988 100.663 33.428C99.9433 31.844 99.5833 29.984 99.5833 27.848ZM113.587 27.848C113.587 26.768 113.311 25.928 112.759 25.328C112.207 24.728 111.499 24.428 110.635 24.428C109.771 24.428 109.063 24.728 108.511 25.328C107.959 25.928 107.683 26.768 107.683 27.848C107.683 28.928 107.959 29.768 108.511 30.368C109.063 30.968 109.771 31.268 110.635 31.268C111.499 31.268 112.207 30.968 112.759 30.368C113.311 29.768 113.587 28.928 113.587 27.848ZM124.052 27.848C124.052 25.736 124.484 23.9 125.348 22.34C126.236 20.756 127.46 19.544 129.02 18.704C130.604 17.864 132.404 17.444 134.42 17.444C137.06 17.444 139.28 18.188 141.08 19.676C142.904 21.164 144.056 23.228 144.536 25.868H136.076C135.764 24.812 135.152 24.284 134.24 24.284C133.592 24.284 133.076 24.584 132.692 25.184C132.332 25.784 132.152 26.672 132.152 27.848C132.152 29.024 132.332 29.912 132.692 30.512C133.076 31.112 133.592 31.412 134.24 31.412C135.152 31.412 135.764 30.884 136.076 29.828H144.536C144.056 32.468 142.904 34.532 141.08 36.02C139.28 37.508 137.06 38.252 134.42 38.252C132.404 38.252 130.604 37.832 129.02 36.992C127.46 36.152 126.236 34.952 125.348 33.392C124.484 31.808 124.052 29.96 124.052 27.848ZM161.29 17.552C163.618 17.552 165.43 18.332 166.726 19.892C168.046 21.452 168.706 23.564 168.706 26.228V38H160.75V27.236C160.75 26.276 160.486 25.52 159.958 24.968C159.454 24.392 158.77 24.104 157.906 24.104C157.018 24.104 156.322 24.392 155.818 24.968C155.314 25.52 155.062 26.276 155.062 27.236V38H147.07V11.36H155.062V20.792C155.686 19.832 156.514 19.052 157.546 18.452C158.602 17.852 159.85 17.552 161.29 17.552ZM183.871 16.256C183.439 16.208 183.139 16.184 182.971 16.184C182.371 16.184 181.915 16.304 181.603 16.544C181.291 16.76 181.075 17.144 180.955 17.696H183.871V24.356H180.883V38H172.891V24.356H170.731V17.696H172.891C172.939 15.056 173.767 13.016 175.375 11.576C177.007 10.112 179.287 9.38 182.215 9.38C182.551 9.38 183.103 9.404 183.871 9.452V16.256ZM194.015 11.36V38H186.023V11.36H194.015ZM201.656 16.076C200.264 16.076 199.148 15.704 198.308 14.96C197.468 14.216 197.048 13.28 197.048 12.152C197.048 11 197.468 10.052 198.308 9.308C199.148 8.54 200.264 8.156 201.656 8.156C203.024 8.156 204.128 8.54 204.968 9.308C205.808 10.052 206.228 11 206.228 12.152C206.228 13.28 205.808 14.216 204.968 14.96C204.128 15.704 203.024 16.076 201.656 16.076ZM205.616 17.696V38H197.624V17.696H205.616ZM222.546 38L219.126 33.428L216.57 38H207.786L214.59 27.308L207.426 17.696H216.354L219.774 22.304L222.366 17.696H231.15L224.13 28.136L231.474 38H222.546Z" fill="#7159C1"/>
</svg>
